# Blender v2.77 (sub 0) OBJ File: ''
# www.blender.org
mtllib talos_COM_constraints_in_RF_effector_frame_REDUCED.mtl
o foo
v 0.620285 0.291967 0.632786
v 0.417405 0.142919 0.328620
v 0.513849 0.336769 0.650566
v 0.477939 0.274896 0.874863
v 0.647089 0.112693 0.699607
v -0.720861 0.218553 0.396644
v -0.669698 0.282514 0.519054
v -0.450046 0.327329 0.827699
v 0.137979 0.226373 1.057303
v 0.334383 0.070777 1.009706
v -0.740770 0.210861 0.543518
v -0.776648 0.077067 0.404342
v 0.636395 -0.040284 0.643199
v 0.587908 0.072656 0.774033
v 0.401611 -0.012749 0.858633
v -0.060136 -0.027755 1.060663
v -0.142074 -0.026648 1.071049
v -0.716516 -0.013876 0.567327
v 0.403107 0.299932 0.943485
v -0.733100 0.061681 0.606845
v -0.650711 0.175803 0.784998
v -0.669705 0.274900 0.623852
v -0.488603 0.284942 0.870313
v 0.461412 0.008199 0.396047
v 0.115319 -0.035534 0.959361
v -0.670324 -0.031051 0.655123
v -0.440980 -0.041442 0.936769
v -0.417148 0.246614 0.968573
v -0.436416 0.137212 0.980089
v 0.448731 0.133943 0.949939
v 0.021409 0.267722 1.041373
v 0.285294 0.079032 0.335878
v -0.543912 0.000475 0.897135
v -0.308403 -0.040146 1.013818
v 0.008499 0.234884 1.062614
v -0.256917 0.146839 1.053392
v 0.137201 0.288875 1.008677
v -0.394509 0.176219 0.993326
v -0.268222 0.256203 1.021756
v -0.078739 0.222290 1.066180
vn 0.8238 0.0116 -0.5667
vn 0.0142 0.9914 0.1300
vn 0.5978 -0.4838 0.6392
vn 0.8188 -0.2481 0.5176
vn -0.9803 0.1814 0.0783
vn -0.3453 0.2209 0.9121
vn 0.0395 0.0095 0.9992
vn 0.2683 -0.7875 0.5548
vn -0.4656 -0.8132 0.3491
vn -0.0073 -0.9995 -0.0309
vn 0.0057 0.9818 0.1900
vn -0.0777 0.6043 0.7929
vn -0.3745 -0.0614 0.9252
vn 0.4495 -0.6819 0.5770
vn 0.0117 -0.9803 0.1971
vn 0.1874 -0.9277 0.3228
vn -0.1923 -0.0274 0.9810
vn 0.7836 -0.0035 0.6212
vn -0.7001 0.7121 0.0517
vn -0.9373 -0.2992 0.1788
vn 0.9582 0.0376 -0.2836
vn -0.8365 -0.2322 0.4962
vn 0.2326 -0.8524 0.4684
vn 0.5997 0.6922 0.4015
vn -0.0320 0.9921 -0.1213
vn 0.0162 -0.9990 0.0418
vn 0.7996 0.2383 0.5512
vn 0.3638 0.1563 0.9183
vn 0.1654 0.6069 0.7774
vn -0.0591 0.0087 -0.9982
vn 0.6982 0.2184 0.6817
vn -0.2955 0.7975 0.5260
vn -0.0632 0.9165 0.3951
vn 0.0039 -0.9999 0.0102
vn -0.4607 -0.1667 0.8718
vn -0.0643 -0.0289 -0.9975
vn 0.0728 -0.0264 0.9970
vn -0.6645 0.0710 0.7439
vn -0.6028 0.6813 0.4152
vn 0.1535 -0.1067 0.9824
vn -0.0087 -0.9824 -0.1868
vn -0.8983 0.2376 0.3695
vn 0.0265 -0.9922 0.1221
vn -0.4626 -0.3773 0.8023
vn 0.1459 -0.4043 -0.9029
vn -0.0521 -0.8801 -0.4719
vn -0.7190 0.6923 -0.0612
vn -0.2920 0.9539 0.0693
vn 0.4114 0.8720 0.2652
vn -0.6417 0.1912 0.7427
vn -0.0441 -0.7082 -0.7046
vn -0.8471 -0.3801 0.3713
vn 0.5996 -0.4788 0.6412
vn -0.2398 0.8171 0.5242
vn -0.0589 0.9203 0.3867
vn -0.4372 0.1700 0.8832
vn -0.6329 0.4447 0.6337
vn 0.0954 0.5805 0.8087
vn -0.0462 0.5553 0.8304
vn -0.1769 0.2566 0.9502
vn 0.2432 0.7971 -0.5528
vn 0.0218 0.8616 -0.5071
usemtl None
s off
f 13//1 24//1 2//1 1//1
f 8//2 19//2 3//2
f 14//3 10//3 13//3
f 5//4 14//4 13//4
f 20//5 11//5 6//5 12//5
f 36//6 39//6 28//6 38//6
f 35//7 40//7 17//7
f 16//8 15//8 10//8
f 33//9 26//9 27//9
f 27//10 26//10 13//10
f 8//11 37//11 19//11
f 40//12 31//12 39//12
f 38//13 29//13 34//13 36//13
f 10//14 15//14 13//14
f 16//15 17//15 34//15
f 15//16 25//16 13//16
f 40//17 36//17 34//17 17//17
f 30//18 14//18 5//18
f 11//19 22//19 7//19
f 20//20 12//20 18//20
f 5//21 13//21 1//21
f 20//22 26//22 33//22 21//22
f 16//23 25//23 15//23
f 19//24 4//24 1//24
f 7//25 8//25 3//25
f 25//26 34//26 13//26
f 5//27 1//27 4//27 30//27
f 10//28 30//28 19//28 9//28
f 37//29 9//29 19//29
f 32//30 6//30 2//30
f 30//31 4//31 19//31
f 23//32 28//32 8//32
f 39//33 31//33 8//33
f 34//34 27//34 13//34
f 29//35 33//35 34//35
f 12//36 6//36 32//36
f 35//37 17//37 16//37 9//37
f 21//38 33//38 29//38
f 21//39 23//39 8//39 22//39
f 9//40 16//40 10//40
f 26//41 18//41 24//41 13//41
f 21//42 22//42 11//42 20//42
f 16//43 34//43 25//43
f 33//44 27//44 34//44
f 24//45 32//45 2//45
f 18//46 12//46 24//46
f 11//47 7//47 6//47
f 22//48 8//48 7//48
f 19//49 1//49 3//49
f 21//50 29//50 28//50
f 12//51 32//51 24//51
f 20//52 18//52 26//52
f 30//53 10//53 14//53
f 28//54 39//54 8//54
f 31//55 37//55 8//55
f 29//56 38//56 28//56
f 21//57 28//57 23//57
f 31//58 35//58 9//58 37//58
f 40//59 35//59 31//59
f 36//60 40//60 39//60
f 3//61 1//61 2//61
f 6//62 7//62 3//62 2//62
