# Blender v2.77 (sub 0) OBJ File: ''
# www.blender.org
mtllib talos_LF_constraints_in_RF_quasi_flat_REDUCED.mtl
o foo
v 0.309961 0.800311 0.006626
v -0.042532 0.728959 -0.277092
v -0.204739 0.785187 -0.194369
v 0.163816 0.900633 0.274600
v -0.326193 0.303722 -0.450179
v -0.290104 0.200606 -0.475631
v -0.323395 0.211466 -0.372144
v -0.318240 0.306456 0.500298
v -0.323902 0.873649 0.563283
v -0.325758 0.195694 0.251725
v -0.296636 0.639755 -0.382398
v -0.276093 0.440533 -0.522028
v 0.170417 0.368876 -0.564590
v -0.046029 0.344797 -0.559881
v 0.302679 0.236204 -0.313885
v 0.316714 0.232618 -0.245047
v 0.321054 0.194809 0.036949
v 0.259631 0.251383 -0.495101
v 0.322192 0.412583 -0.387172
v 0.327981 0.198394 0.097360
v 0.323458 0.825942 0.104246
v 0.216139 0.884025 0.328076
v 0.099770 0.877321 0.471264
v 0.114758 0.794634 0.610727
v 0.302292 0.711536 0.539728
v -0.313732 0.192866 -0.057566
v 0.099285 0.647921 0.617583
v -0.145435 0.558858 0.614339
v 0.276530 0.233744 0.567556
v -0.272490 0.198464 0.392388
vn 0.1013 0.9386 -0.3299
vn -0.9274 -0.2576 -0.2713
vn -0.9992 -0.0140 0.0365
vn -0.9230 0.1525 -0.3533
vn -0.0500 0.2610 -0.9640
vn 0.3956 -0.9095 -0.1280
vn 0.0354 -0.4887 -0.8717
vn 0.9974 -0.0611 -0.0389
vn 0.1803 -0.9757 -0.1246
vn 0.9999 0.0073 -0.0087
vn 0.4870 0.7673 0.4173
vn 0.0487 -0.9964 -0.0694
vn -0.0766 -0.2388 0.9680
vn 0.8872 -0.4553 -0.0747
vn -0.9991 0.0381 -0.0192
vn -0.7402 -0.6056 0.2922
vn 0.9968 -0.0177 0.0784
vn 0.0187 -0.5278 -0.8492
vn 0.8792 -0.0226 -0.4758
vn 0.9597 -0.1916 -0.2056
vn -0.0137 -0.9711 0.2385
vn -0.4381 -0.1035 0.8930
vn 0.0545 0.6203 -0.7825
vn 0.1010 0.8605 0.4993
vn 0.0182 0.9922 0.1235
vn -0.1347 0.9815 -0.1358
vn -0.6998 0.6885 -0.1905
vn -0.0305 0.7978 -0.6021
vn 0.3546 0.7024 -0.6172
vn 0.5152 0.6187 -0.5931
vn 0.9557 0.2241 -0.1910
vn 0.3634 0.9292 -0.0669
vn 0.7557 0.6235 0.2005
vn 0.1554 0.9500 -0.2709
vn 0.3671 0.0343 0.9295
vn -0.3396 -0.1594 -0.9270
vn 0.2996 0.0130 0.9540
vn -0.4217 -0.9058 -0.0406
vn 0.1437 0.9762 0.1625
vn -0.0750 0.0980 0.9924
vn 0.0017 -1.0000 0.0092
vn -0.7001 -0.7137 -0.0207
vn -0.9994 -0.0342 -0.0047
vn 0.0108 -0.9995 0.0284
usemtl None
s 1
f 1//1 2//1 3//1 4//1
f 5//2 6//2 7//2
f 8//3 9//3 10//3
f 11//4 12//4 5//4
f 13//5 14//5 12//5
f 15//6 16//6 17//6
f 13//7 18//7 14//7
f 16//8 19//8 20//8
f 18//9 15//9 17//9
f 19//10 21//10 20//10
f 22//11 23//11 24//11 25//11
f 17//12 26//12 6//12 18//12
f 27//13 28//13 8//13 29//13
f 16//14 20//14 17//14
f 9//15 11//15 5//15 10//15
f 30//16 8//16 10//16
f 25//17 29//17 20//17 21//17
f 14//18 18//18 6//18
f 13//19 19//19 15//19 18//19
f 19//20 16//20 15//20
f 29//21 8//21 30//21 20//21
f 28//22 9//22 8//22
f 2//23 13//23 12//23 11//23
f 24//24 23//24 9//24
f 23//25 4//25 9//25
f 4//26 3//26 9//26
f 3//27 11//27 9//27
f 3//28 2//28 11//28
f 2//29 1//29 13//29
f 1//30 19//30 13//30
f 1//31 21//31 19//31
f 4//32 22//32 21//32
f 22//33 25//33 21//33
f 1//34 4//34 21//34
f 24//35 29//35 25//35
f 12//36 14//36 6//36 5//36
f 24//37 27//37 29//37
f 7//38 6//38 26//38
f 22//39 4//39 23//39
f 27//40 24//40 9//40 28//40
f 17//41 10//41 26//41
f 10//42 7//42 26//42
f 10//43 5//43 7//43
f 30//44 10//44 17//44 20//44
